<svg xmlns="http://www.w3.org/2000/svg" viewBox="0 0 1200 460" role="img" aria-labelledby="title desc">
  <title>Sizing workflow</title>
  <desc>Four gates move from demand framing through assumptions and deterministic sizing to benchmark validation.</desc>
  <defs><linearGradient id="flowbg" x1="0" x2="1"><stop stop-color="#0a0d10"/><stop offset="1" stop-color="#14191e"/></linearGradient><marker id="arrow" viewBox="0 0 10 10" refX="8" refY="5" markerWidth="7" markerHeight="7" orient="auto"><path d="M0 0L10 5 0 10Z" fill="#5be7d3"/></marker></defs>
  <rect width="1200" height="460" fill="url(#flowbg)"/>
  <text x="62" y="58" fill="#98a1aa" font-family="monospace" font-size="13" letter-spacing="3">DECISION FLOW / EACH GATE LEAVES AN AUDIT TRAIL</text>
  <path d="M264 228H352M552 228H640M840 228H928" stroke="#5be7d3" stroke-width="2" stroke-dasharray="7 8" marker-end="url(#arrow)"/>
  <rect x="56" y="120" width="208" height="216" rx="7" fill="#11161a" stroke="#343c45"/>
  <rect x="344" y="120" width="208" height="216" rx="7" fill="#11161a" stroke="#343c45"/>
  <rect x="632" y="120" width="208" height="216" rx="7" fill="#11161a" stroke="#343c45"/>
  <rect x="920" y="120" width="224" height="216" rx="7" fill="#11161a" stroke="#d5ff52"/>
  <circle cx="88" cy="153" r="16" fill="#1d242a" stroke="#5be7d3"/><circle cx="376" cy="153" r="16" fill="#1d242a" stroke="#5be7d3"/><circle cx="664" cy="153" r="16" fill="#1d242a" stroke="#5be7d3"/><circle cx="952" cy="153" r="16" fill="#d5ff52"/>
  <text x="82" y="158" fill="#5be7d3" font-family="monospace" font-size="13">1</text><text x="370" y="158" fill="#5be7d3" font-family="monospace" font-size="13">2</text><text x="658" y="158" fill="#5be7d3" font-family="monospace" font-size="13">3</text><text x="946" y="158" fill="#151a08" font-family="monospace" font-size="13">4</text>
  <text x="80" y="202" fill="#f4f5f2" font-family="Arial, sans-serif" font-size="21" font-weight="600">Frame demand</text><text x="80" y="230" fill="#98a1aa" font-family="Arial, sans-serif" font-size="13">Workload mode</text><text x="80" y="252" fill="#98a1aa" font-family="Arial, sans-serif" font-size="13">Peak and latency</text><text x="80" y="274" fill="#98a1aa" font-family="Arial, sans-serif" font-size="13">Data movement</text>
  <text x="368" y="202" fill="#f4f5f2" font-family="Arial, sans-serif" font-size="21" font-weight="600">Set assumptions</text><text x="368" y="230" fill="#98a1aa" font-family="Arial, sans-serif" font-size="13">Illustrative profile</text><text x="368" y="252" fill="#98a1aa" font-family="Arial, sans-serif" font-size="13">Derating and HA</text><text x="368" y="274" fill="#98a1aa" font-family="Arial, sans-serif" font-size="13">Commercial basis</text>
  <text x="656" y="202" fill="#f4f5f2" font-family="Arial, sans-serif" font-size="21" font-weight="600">Size ranges</text><text x="656" y="230" fill="#98a1aa" font-family="Arial, sans-serif" font-size="13">Capacity envelope</text><text x="656" y="252" fill="#98a1aa" font-family="Arial, sans-serif" font-size="13">Sensitivity bands</text><text x="656" y="274" fill="#98a1aa" font-family="Arial, sans-serif" font-size="13">Bottleneck signal</text>
  <text x="944" y="202" fill="#d5ff52" font-family="Arial, sans-serif" font-size="21" font-weight="600">Validate evidence</text><text x="944" y="230" fill="#c7ccd0" font-family="Arial, sans-serif" font-size="13">Benchmark questions</text><text x="944" y="252" fill="#c7ccd0" font-family="Arial, sans-serif" font-size="13">Measurement plan</text><text x="944" y="274" fill="#c7ccd0" font-family="Arial, sans-serif" font-size="13">Commercial review</text>
  <rect x="80" y="301" width="116" height="3" fill="#5be7d3"/><rect x="368" y="301" width="116" height="3" fill="#5be7d3"/><rect x="656" y="301" width="116" height="3" fill="#5be7d3"/><rect x="944" y="301" width="126" height="3" fill="#d5ff52"/>
  <path d="M56 378H1144" stroke="#2d343d"/>
  <text x="56" y="410" fill="#ffca61" font-family="monospace" font-size="11">GUARDRAIL</text><text x="150" y="410" fill="#98a1aa" font-family="Arial, sans-serif" font-size="13">No procurement decision advances without measured workload evidence and an approved price source.</text>
</svg>
